<svg xmlns="http://www.w3.org/2000/svg" width="60" height="60" viewBox="0 0 60 60" fill="none">
  <path d="M52.8603 13.352C52.5687 13.352 52.2771 13.2152 52.0827 12.971C50.3331 10.6657 48.253 8.65347 45.8813 6.99288C45.4439 6.6803 45.337 6.07467 45.6383 5.6351C45.9397 5.19553 46.552 5.07832 46.9894 5.3909C49.5264 7.1687 51.7522 9.3177 53.6282 11.789C53.949 12.2188 53.8712 12.8342 53.4435 13.1566C53.2686 13.2836 53.0644 13.352 52.8603 13.352Z" fill="#131114" stroke="#131114" stroke-width="0.15" stroke-miterlimit="10"/>
  <path d="M30.1458 59.3494C13.8842 59.3494 0.655212 46.0549 0.655212 29.7128C0.655212 13.3707 13.8842 0.0761719 30.1458 0.0761719C34.4809 0.0761719 38.6508 0.99438 42.5388 2.81126C43.0248 3.03593 43.2386 3.62202 43.0151 4.11043C42.7915 4.59883 42.2083 4.81373 41.7223 4.58907C38.087 2.8894 34.1893 2.02981 30.1458 2.02981C14.9534 2.02981 2.59922 14.4549 2.59922 29.7128C2.59922 44.9707 14.9631 57.3958 30.1458 57.3958C45.3284 57.3958 57.6923 44.9707 57.6923 29.7128C57.6923 25.3464 56.7106 21.1754 54.7763 17.3072C54.5333 16.8286 54.7277 16.2425 55.2137 15.9983C55.6997 15.7541 56.2732 15.9494 56.5162 16.4281C58.5866 20.5698 59.6363 25.0436 59.6363 29.7128C59.6363 46.0549 46.4074 59.3494 30.1458 59.3494Z" fill="#131114" stroke="#131114" stroke-width="0.15" stroke-miterlimit="10"/>
  <path d="M41.2816 45.6618C41.0775 45.6618 40.8637 45.5934 40.6887 45.4567L19.9656 29.4467V44.685C19.9656 45.2222 19.5282 45.6618 18.9936 45.6618C18.459 45.6618 18.0216 45.2222 18.0216 44.685V27.4637C18.0216 27.0925 18.2354 26.7506 18.5659 26.5846C18.8964 26.4185 19.2949 26.4576 19.5865 26.6823L41.8745 43.9035C42.3022 44.2357 42.38 44.8413 42.0495 45.2711C41.8648 45.5251 41.5732 45.6618 41.2816 45.6618Z" fill="#131114" stroke="#131114" stroke-width="0.15" stroke-miterlimit="10"/>
  <path d="M41.2919 32.9353C41.0781 32.9353 40.874 32.8669 40.699 32.7301L18.4013 15.5088C17.9736 15.1767 17.8958 14.5711 18.2263 14.1413C18.5568 13.7115 19.1594 13.6334 19.5871 13.9655L40.3102 29.9755V14.7372C40.3102 14.1999 40.7476 13.7603 41.2822 13.7603C41.8168 13.7603 42.2542 14.1999 42.2542 14.7372V31.9584C42.2542 32.3296 42.0404 32.6715 41.7099 32.8376C41.5835 32.8962 41.4377 32.9353 41.2919 32.9353Z" fill="#131114" stroke="#131114" stroke-width="0.15" stroke-miterlimit="10"/>
</svg>